<?xml version="1.0" encoding="UTF-8" standalone="no"?>
<!DOCTYPE svg PUBLIC "-//W3C//DTD SVG 1.1//EN" "http://www.w3.org/Graphics/SVG/1.1/DTD/svg11.dtd">
<svg width="100%" height="100%" viewBox="0 0 108 20" version="1.1" xmlns="http://www.w3.org/2000/svg" xmlns:xlink="http://www.w3.org/1999/xlink" xml:space="preserve" xmlns:serif="http://www.serif.com/" style="fill-rule:evenodd;clip-rule:evenodd;stroke-linejoin:round;stroke-miterlimit:2;">
    <g transform="matrix(0.1,0,0,0.1,0,0)">
        <path d="M101.791,1.144C101.053,-0.381 98.91,-0.381 98.172,1.144C94.726,8.257 87.186,24.164 82.923,35.763C77.821,49.645 72.017,72.03 72.017,72.03C72.017,72.03 49.635,77.835 35.756,82.938C24.159,87.203 8.256,94.743 1.143,98.19C-0.381,98.929 -0.381,101.071 1.143,101.81C8.256,105.257 24.159,112.797 35.756,117.062C49.635,122.165 72.017,127.97 72.017,127.97C72.017,127.97 77.821,150.356 82.923,164.237C87.186,175.836 94.726,191.743 98.172,198.856C98.91,200.381 101.053,200.381 101.791,198.856C105.237,191.743 112.777,175.836 117.04,164.237C122.142,150.356 127.946,127.97 127.946,127.97C127.946,127.97 151.713,122.581 166.258,117.062C179.073,112.198 197.866,102.247 198.791,101.756C198.82,101.74 198.842,101.73 198.872,101.715C200.353,100.976 200.388,98.871 198.906,98.102C192.14,94.589 177.245,87.054 166.258,82.938C151.689,77.482 127.946,72.03 127.946,72.03C127.946,72.03 122.142,49.645 117.04,35.763C112.777,24.164 105.237,8.257 101.791,1.144Z" style="fill-rule:nonzero;"/>
    </g>
    <g transform="matrix(0.1,0,0,0.1,22,0)">
        <path d="M101.791,1.144C101.053,-0.381 98.91,-0.381 98.172,1.144C94.726,8.257 87.186,24.164 82.923,35.763C77.821,49.645 72.017,72.03 72.017,72.03C72.017,72.03 49.635,77.835 35.756,82.938C24.159,87.203 8.256,94.743 1.143,98.19C-0.381,98.929 -0.381,101.071 1.143,101.81C8.256,105.257 24.159,112.797 35.756,117.062C49.635,122.165 72.017,127.97 72.017,127.97C72.017,127.97 77.821,150.356 82.923,164.237C87.186,175.836 94.726,191.743 98.172,198.856C98.91,200.381 101.053,200.381 101.791,198.856C105.237,191.743 112.777,175.836 117.04,164.237C122.142,150.356 127.946,127.97 127.946,127.97C127.946,127.97 151.713,122.581 166.258,117.062C179.073,112.198 197.866,102.247 198.791,101.756C198.82,101.74 198.842,101.73 198.872,101.715C200.353,100.976 200.388,98.871 198.906,98.102C192.14,94.589 177.245,87.054 166.258,82.938C151.689,77.482 127.946,72.03 127.946,72.03C127.946,72.03 122.142,49.645 117.04,35.763C112.777,24.164 105.237,8.257 101.791,1.144Z" style="fill-rule:nonzero;"/>
    </g>
    <g transform="matrix(0.1,0,0,0.1,44,0)">
        <path d="M101.791,1.144C101.053,-0.381 98.91,-0.381 98.172,1.144C94.726,8.257 87.186,24.164 82.923,35.763C77.821,49.645 72.017,72.03 72.017,72.03C72.017,72.03 49.635,77.835 35.756,82.938C24.159,87.203 8.256,94.743 1.143,98.19C-0.381,98.929 -0.381,101.071 1.143,101.81C8.256,105.257 24.159,112.797 35.756,117.062C49.635,122.165 72.017,127.97 72.017,127.97C72.017,127.97 77.821,150.356 82.923,164.237C87.186,175.836 94.726,191.743 98.172,198.856C98.91,200.381 101.053,200.381 101.791,198.856C105.237,191.743 112.777,175.836 117.04,164.237C122.142,150.356 127.946,127.97 127.946,127.97C127.946,127.97 151.713,122.581 166.258,117.062C179.073,112.198 197.866,102.247 198.791,101.756C198.82,101.74 198.842,101.73 198.872,101.715C200.353,100.976 200.388,98.871 198.906,98.102C192.14,94.589 177.245,87.054 166.258,82.938C151.689,77.482 127.946,72.03 127.946,72.03C127.946,72.03 122.142,49.645 117.04,35.763C112.777,24.164 105.237,8.257 101.791,1.144Z" style="fill-rule:nonzero;"/>
    </g>
    <g transform="matrix(0.1,0,0,0.1,66,0)">
        <path d="M101.791,1.144C101.053,-0.381 98.91,-0.381 98.172,1.144C94.726,8.257 87.186,24.164 82.923,35.763C77.821,49.645 72.017,72.03 72.017,72.03C72.017,72.03 49.635,77.835 35.756,82.938C24.159,87.203 8.256,94.743 1.143,98.19C-0.381,98.929 -0.381,101.071 1.143,101.81C8.256,105.257 24.159,112.797 35.756,117.062C49.635,122.165 72.017,127.97 72.017,127.97C72.017,127.97 77.821,150.356 82.923,164.237C87.186,175.836 94.726,191.743 98.172,198.856C98.91,200.381 101.053,200.381 101.791,198.856C105.237,191.743 112.777,175.836 117.04,164.237C122.142,150.356 127.946,127.97 127.946,127.97C127.946,127.97 151.713,122.581 166.258,117.062C179.073,112.198 197.866,102.247 198.791,101.756C198.82,101.74 198.842,101.73 198.872,101.715C200.353,100.976 200.388,98.871 198.906,98.102C192.14,94.589 177.245,87.054 166.258,82.938C151.689,77.482 127.946,72.03 127.946,72.03C127.946,72.03 122.142,49.645 117.04,35.763C112.777,24.164 105.237,8.257 101.791,1.144Z" style="fill-rule:nonzero;"/>
    </g>
    <g transform="matrix(0.1,0,0,0.1,88,0)">
        <path d="M101.791,1.144C101.053,-0.381 98.91,-0.381 98.172,1.144C94.726,8.257 87.186,24.164 82.923,35.763C77.821,49.645 72.017,72.03 72.017,72.03C72.017,72.03 49.635,77.835 35.756,82.938C24.159,87.203 8.256,94.743 1.143,98.19C-0.381,98.929 -0.381,101.071 1.143,101.81C8.256,105.257 24.159,112.797 35.756,117.062C49.635,122.165 72.017,127.97 72.017,127.97C72.017,127.97 77.821,150.356 82.923,164.237C87.186,175.836 94.726,191.743 98.172,198.856C98.91,200.381 101.053,200.381 101.791,198.856C105.237,191.743 112.777,175.836 117.04,164.237C122.142,150.356 127.946,127.97 127.946,127.97C127.946,127.97 151.713,122.581 166.258,117.062C179.073,112.198 197.866,102.247 198.791,101.756C198.82,101.74 198.842,101.73 198.872,101.715C200.353,100.976 200.388,98.871 198.906,98.102C192.14,94.589 177.245,87.054 166.258,82.938C151.689,77.482 127.946,72.03 127.946,72.03C127.946,72.03 122.142,49.645 117.04,35.763C112.777,24.164 105.237,8.257 101.791,1.144Z" style="fill-rule:nonzero;"/>
    </g>
</svg>
